ply
format ascii 1.0
element vertex 38
property float x
property float y
property float z
property uchar diffuse_red
property uchar diffuse_green
property uchar diffuse_blue
end_header
-1.42113 -1.09482 1.48662 0 255 0
-0.971179 -0.0418274 1.12411 0 255 0
-1.08494 -0.655438 1.30062 255 0 255
-1.45748 0.511036 2.70112 255 0 255
-5.25991 -0.26456 2.77272 255 0 255
-6.44863 0.244831 3.08313 255 0 255
-6.80296 0.787257 5.52969 0 255 0
-9.30429 -0.180165 1.87067 255 0 255
-7.16515 -0.975958 -1.4081 255 0 255
-4.748 0.203518 -0.216961 255 0 255
-7.14562 -0.130845 -1.49005 255 0 255
-11.7439 -0.446801 0.649548 0 255 0
-11.5828 0.94717 0.66674 255 0 255
-13.3464 -0.126572 2.2503 0 255 0
-14.5844 -0.710451 3.14804 255 0 255
-14.259 0.324769 2.98705 0 255 0
-14.432 0.0439122 6.45062 255 0 255
-16.0474 4.19132e-008 6.39927 0 255 0
-16.3335 0.686899 7.79333 255 0 255
-16.5856 -0.565133 8.45061 255 0 255
-6.574 1.13224 5.58058 255 0 255
-10.9676 1.93545 7.27796 255 0 255
-10.2161 1.60659 5.8453 255 0 255
-10.4755 2.73744 8.72163 255 0 255
-10.0962 2.15534 8.42543 255 0 255
-9.03898 0.845017 9.80981 255 0 255
-8.63627 1.66838 9.47421 255 0 255
-8.43475 0.674005 9.36146 255 0 255
-13.0933 -2.72357e-008 13.7321 0 255 0
0.571035 -1.5514 8.05624 255 0 255
1.31925 -0.717939 5.80122 255 0 255
0.726792 -0.186862 7.8253 255 0 255
0.788581 -0.815977 9.85859 255 0 255
-1.28596 -1.62196 10.7918 255 0 255
-1.74176 -1.46721 11.1584 255 0 255
-4.13144 7.86041e-009 13.4532 255 0 255
-9.7522 0.567063 12.0395 255 0 255
-7.90534 0.203364 13.9092 255 0 255
