ply
format ascii 1.0
element vertex 30
property float x
property float y
property float z
end_header
-1.08494 -0.655438 1.30062
-1.45748 0.511036 2.70112
-5.25991 -0.26456 2.77272
-6.44863 0.244831 3.08313
-9.30429 -0.180165 1.87067
-7.16515 -0.975958 -1.4081
-4.748 0.203518 -0.216961
-7.14562 -0.130845 -1.49005
-11.5828 0.94717 0.66674
-14.5844 -0.710451 3.14804
-14.432 0.0439122 6.45062
-16.3335 0.686899 7.79333
-16.5856 -0.565133 8.45061
-6.574 1.13224 5.58058
-10.9676 1.93545 7.27796
-10.2161 1.60659 5.8453
-10.4755 2.73744 8.72163
-10.0962 2.15534 8.42543
-9.03898 0.845017 9.80981
-8.63627 1.66838 9.47421
-8.43475 0.674005 9.36146
0.571035 -1.5514 8.05624
1.31925 -0.717939 5.80122
0.726792 -0.186862 7.8253
0.788581 -0.815977 9.85859
-1.28596 -1.62196 10.7918
-1.74176 -1.46721 11.1584
-4.13144 7.86041e-009 13.4532
-9.7522 0.567063 12.0395
-7.90534 0.203364 13.9092
