ply
format ascii 1.0
element vertex 19
property float x
property float y
property float z
property uchar diffuse_red
property uchar diffuse_green
property uchar diffuse_blue
end_header
0.416846 0.496026 0.74014 0 255 0
-0.301948 -0.0409445 0.914026 0 255 0
0.316187 -0.100512 1.23729 255 0 255
0.16586 -0.5438 0.190444 255 0 255
0.822546 0.00801961 0.390162 255 0 255
-0.0396069 0.0150534 0.915535 255 0 255
-0.258229 1.35171e-008 1.05267 0 255 0
-0.336443 0.00477544 1.87665 255 0 255
0.37784 0.610744 1.59739 255 0 255
0.648127 -0.841203 1.59418 255 0 255
0.667984 -1.09878 1.64922 255 0 255
0.688384 -0.999649 2.20938 255 0 255
0.553611 -1.13467 2.93757 255 0 255
1.05003 -1.24246 1.92115 0 255 0
0.424076 -1.30558 4.05375 255 0 255
0.0613343 -0.0702348 2.84873 255 0 255
-0.0919854 -0.721538 4.49169 255 0 255
-0.769699 -8.80566e-008 4.62111 255 0 255
0.725203 -2.8174e-008 4.262 255 0 255
