ply
format ascii 1.0
element vertex 15
property float x
property float y
property float z
end_header
0.316187 -0.100512 1.23729
0.16586 -0.5438 0.190444
0.822546 0.00801961 0.390162
-0.0396069 0.0150534 0.915535
-0.336443 0.00477544 1.87665
0.37784 0.610744 1.59739
0.648127 -0.841203 1.59418
0.667984 -1.09878 1.64922
0.688384 -0.999649 2.20938
0.553611 -1.13467 2.93757
0.424076 -1.30558 4.05375
0.0613343 -0.0702348 2.84873
-0.0919854 -0.721538 4.49169
-0.769699 -8.80566e-008 4.62111
0.725203 -2.8174e-008 4.262
