ply
format ascii 1.0
element vertex 15
property float x
property float y
property float z
end_header
1.45446 -4.16841e-008 0.385321
1.373 -0.455162 -0.615806
1.90757 0.176455 -0.436225
1.09485 0.0482149 0.0790943
0.825328 1.64246e-009 1.00725
1.40041 0.687217 0.725006
1.8938 -0.644167 0.730561
1.96318 -0.781875 1.32219
1.86524 -0.923652 2.02512
2.34291 -0.95527 1.04305
1.2248 0.00369413 1.93701
1.78182 -1.09582 3.10083
1.20232 -0.622029 3.52321
0.444459 -0.0468927 3.64963
1.85697 0.192225 3.28673
