ply
format ascii 1.0
element vertex 19
property float x
property float y
property float z
property uchar diffuse_red
property uchar diffuse_green
property uchar diffuse_blue
end_header
0.855503 -0.0474294 0.0814951 0 255 0
1.44733 0.576356 -0.0987949 0 255 0
1.45446 -4.16841e-008 0.385321 255 0 255
1.373 -0.455162 -0.615806 255 0 255
1.90757 0.176455 -0.436225 255 0 255
1.09485 0.0482149 0.0790943 255 0 255
0.891852 2.09736e-008 0.213769 0 255 0
0.825328 1.64246e-009 1.00725 255 0 255
1.40041 0.687217 0.725006 255 0 255
1.8938 -0.644167 0.730561 255 0 255
1.9535 -0.886428 0.78332 0 255 0
1.96318 -0.781875 1.32219 255 0 255
1.86524 -0.923652 2.02512 255 0 255
2.34291 -0.95527 1.04305 255 0 255
1.2248 0.00369413 1.93701 255 0 255
1.78182 -1.09582 3.10083 255 0 255
1.20232 -0.622029 3.52321 255 0 255
0.444459 -0.0468927 3.64963 255 0 255
1.85697 0.192225 3.28673 255 0 255
